%TF.GenerationSoftware,KiCad,Pcbnew,(5.1.9)-1*%
%TF.CreationDate,2021-04-15T15:10:30+02:00*%
%TF.ProjectId,12_TOR_P,31325f54-4f52-45f5-902e-6b696361645f,rev?*%
%TF.SameCoordinates,Original*%
%TF.FileFunction,Legend,Top*%
%TF.FilePolarity,Positive*%
%FSLAX46Y46*%
G04 Gerber Fmt 4.6, Leading zero omitted, Abs format (unit mm)*
G04 Created by KiCad (PCBNEW (5.1.9)-1) date 2021-04-15 15:10:30*
%MOMM*%
%LPD*%
G01*
G04 APERTURE LIST*
%TA.AperFunction,Profile*%
%ADD10C,0.050000*%
%TD*%
%ADD11C,0.150000*%
%ADD12C,0.120000*%
G04 APERTURE END LIST*
D10*
X115570000Y-60960000D02*
X120650000Y-60960000D01*
X115570000Y-62230000D02*
X115570000Y-60960000D01*
X114300000Y-62230000D02*
X115570000Y-62230000D01*
X114300000Y-60960000D02*
X114300000Y-62230000D01*
X115570000Y-81280000D02*
X120650000Y-81280000D01*
X115570000Y-80010000D02*
X115570000Y-81280000D01*
X114300000Y-80010000D02*
X115570000Y-80010000D01*
X114300000Y-81280000D02*
X114300000Y-80010000D01*
X101600000Y-62230000D02*
X101600000Y-60960000D01*
X100330000Y-62230000D02*
X101600000Y-62230000D01*
X100330000Y-64770000D02*
X100330000Y-62230000D01*
X101600000Y-64770000D02*
X100330000Y-64770000D01*
X100330000Y-72390000D02*
X100330000Y-67310000D01*
X101600000Y-72390000D02*
X100330000Y-72390000D01*
X101600000Y-74930000D02*
X101600000Y-72390000D01*
X100330000Y-74930000D02*
X101600000Y-74930000D01*
D11*
X107585000Y-78192380D02*
X107775476Y-78192380D01*
X107870714Y-78240000D01*
X107965952Y-78335238D01*
X108013571Y-78525714D01*
X108013571Y-78859047D01*
X107965952Y-79049523D01*
X107870714Y-79144761D01*
X107775476Y-79192380D01*
X107585000Y-79192380D01*
X107489761Y-79144761D01*
X107394523Y-79049523D01*
X107346904Y-78859047D01*
X107346904Y-78525714D01*
X107394523Y-78335238D01*
X107489761Y-78240000D01*
X107585000Y-78192380D01*
X108442142Y-78192380D02*
X108442142Y-79001904D01*
X108489761Y-79097142D01*
X108537380Y-79144761D01*
X108632619Y-79192380D01*
X108823095Y-79192380D01*
X108918333Y-79144761D01*
X108965952Y-79097142D01*
X109013571Y-79001904D01*
X109013571Y-78192380D01*
X109346904Y-78192380D02*
X109918333Y-78192380D01*
X109632619Y-79192380D02*
X109632619Y-78192380D01*
X105791190Y-64857380D02*
X106362619Y-64857380D01*
X106076904Y-65857380D02*
X106076904Y-64857380D01*
X107267380Y-65857380D02*
X106934047Y-65381190D01*
X106695952Y-65857380D02*
X106695952Y-64857380D01*
X107076904Y-64857380D01*
X107172142Y-64905000D01*
X107219761Y-64952619D01*
X107267380Y-65047857D01*
X107267380Y-65190714D01*
X107219761Y-65285952D01*
X107172142Y-65333571D01*
X107076904Y-65381190D01*
X106695952Y-65381190D01*
X107695952Y-65857380D02*
X107695952Y-64857380D01*
X108695952Y-64905000D02*
X108600714Y-64857380D01*
X108457857Y-64857380D01*
X108315000Y-64905000D01*
X108219761Y-65000238D01*
X108172142Y-65095476D01*
X108124523Y-65285952D01*
X108124523Y-65428809D01*
X108172142Y-65619285D01*
X108219761Y-65714523D01*
X108315000Y-65809761D01*
X108457857Y-65857380D01*
X108553095Y-65857380D01*
X108695952Y-65809761D01*
X108743571Y-65762142D01*
X108743571Y-65428809D01*
X108553095Y-65428809D01*
X106481904Y-67397380D02*
X106815238Y-68397380D01*
X107148571Y-67397380D01*
X107434285Y-68349761D02*
X107529523Y-68397380D01*
X107720000Y-68397380D01*
X107815238Y-68349761D01*
X107862857Y-68254523D01*
X107862857Y-68206904D01*
X107815238Y-68111666D01*
X107720000Y-68064047D01*
X107577142Y-68064047D01*
X107481904Y-68016428D01*
X107434285Y-67921190D01*
X107434285Y-67873571D01*
X107481904Y-67778333D01*
X107577142Y-67730714D01*
X107720000Y-67730714D01*
X107815238Y-67778333D01*
X108720000Y-67730714D02*
X108720000Y-68397380D01*
X108291428Y-67730714D02*
X108291428Y-68254523D01*
X108339047Y-68349761D01*
X108434285Y-68397380D01*
X108577142Y-68397380D01*
X108672380Y-68349761D01*
X108720000Y-68302142D01*
X109196190Y-67730714D02*
X109196190Y-68730714D01*
X109196190Y-67778333D02*
X109291428Y-67730714D01*
X109481904Y-67730714D01*
X109577142Y-67778333D01*
X109624761Y-67825952D01*
X109672380Y-67921190D01*
X109672380Y-68206904D01*
X109624761Y-68302142D01*
X109577142Y-68349761D01*
X109481904Y-68397380D01*
X109291428Y-68397380D01*
X109196190Y-68349761D01*
X110100952Y-67730714D02*
X110100952Y-68730714D01*
X110100952Y-67778333D02*
X110196190Y-67730714D01*
X110386666Y-67730714D01*
X110481904Y-67778333D01*
X110529523Y-67825952D01*
X110577142Y-67921190D01*
X110577142Y-68206904D01*
X110529523Y-68302142D01*
X110481904Y-68349761D01*
X110386666Y-68397380D01*
X110196190Y-68397380D01*
X110100952Y-68349761D01*
X111148571Y-68397380D02*
X111053333Y-68349761D01*
X111005714Y-68254523D01*
X111005714Y-67397380D01*
X111434285Y-67730714D02*
X111672380Y-68397380D01*
X111910476Y-67730714D02*
X111672380Y-68397380D01*
X111577142Y-68635476D01*
X111529523Y-68683095D01*
X111434285Y-68730714D01*
D10*
X120650000Y-60960000D02*
X120650000Y-81280000D01*
X101600000Y-60960000D02*
X114300000Y-60960000D01*
X101600000Y-80010000D02*
X101600000Y-81280000D01*
X100330000Y-80010000D02*
X101600000Y-80010000D01*
X101600000Y-64770000D02*
X101600000Y-67310000D01*
X101600000Y-67310000D02*
X100330000Y-67310000D01*
D11*
X117705714Y-80810476D02*
X118515238Y-80810476D01*
X118610476Y-80858095D01*
X118658095Y-80905714D01*
X118705714Y-81000952D01*
X118705714Y-81143809D01*
X118658095Y-81239047D01*
X118324761Y-80810476D02*
X118372380Y-80905714D01*
X118372380Y-81096190D01*
X118324761Y-81191428D01*
X118277142Y-81239047D01*
X118181904Y-81286666D01*
X117896190Y-81286666D01*
X117800952Y-81239047D01*
X117753333Y-81191428D01*
X117705714Y-81096190D01*
X117705714Y-80905714D01*
X117753333Y-80810476D01*
X118372380Y-80334285D02*
X117705714Y-80334285D01*
X117372380Y-80334285D02*
X117420000Y-80381904D01*
X117467619Y-80334285D01*
X117420000Y-80286666D01*
X117372380Y-80334285D01*
X117467619Y-80334285D01*
X117705714Y-80000952D02*
X117705714Y-79620000D01*
X117372380Y-79858095D02*
X118229523Y-79858095D01*
X118324761Y-79810476D01*
X118372380Y-79715238D01*
X118372380Y-79620000D01*
X118372380Y-79286666D02*
X117372380Y-79286666D01*
X118372380Y-78858095D02*
X117848571Y-78858095D01*
X117753333Y-78905714D01*
X117705714Y-79000952D01*
X117705714Y-79143809D01*
X117753333Y-79239047D01*
X117800952Y-79286666D01*
X117705714Y-77953333D02*
X118372380Y-77953333D01*
X117705714Y-78381904D02*
X118229523Y-78381904D01*
X118324761Y-78334285D01*
X118372380Y-78239047D01*
X118372380Y-78096190D01*
X118324761Y-78000952D01*
X118277142Y-77953333D01*
X118372380Y-77477142D02*
X117372380Y-77477142D01*
X117753333Y-77477142D02*
X117705714Y-77381904D01*
X117705714Y-77191428D01*
X117753333Y-77096190D01*
X117800952Y-77048571D01*
X117896190Y-77000952D01*
X118181904Y-77000952D01*
X118277142Y-77048571D01*
X118324761Y-77096190D01*
X118372380Y-77191428D01*
X118372380Y-77381904D01*
X118324761Y-77477142D01*
X118277142Y-76572380D02*
X118324761Y-76524761D01*
X118372380Y-76572380D01*
X118324761Y-76620000D01*
X118277142Y-76572380D01*
X118372380Y-76572380D01*
X118324761Y-75667619D02*
X118372380Y-75762857D01*
X118372380Y-75953333D01*
X118324761Y-76048571D01*
X118277142Y-76096190D01*
X118181904Y-76143809D01*
X117896190Y-76143809D01*
X117800952Y-76096190D01*
X117753333Y-76048571D01*
X117705714Y-75953333D01*
X117705714Y-75762857D01*
X117753333Y-75667619D01*
X118372380Y-75096190D02*
X118324761Y-75191428D01*
X118277142Y-75239047D01*
X118181904Y-75286666D01*
X117896190Y-75286666D01*
X117800952Y-75239047D01*
X117753333Y-75191428D01*
X117705714Y-75096190D01*
X117705714Y-74953333D01*
X117753333Y-74858095D01*
X117800952Y-74810476D01*
X117896190Y-74762857D01*
X118181904Y-74762857D01*
X118277142Y-74810476D01*
X118324761Y-74858095D01*
X118372380Y-74953333D01*
X118372380Y-75096190D01*
X118372380Y-74334285D02*
X117705714Y-74334285D01*
X117800952Y-74334285D02*
X117753333Y-74286666D01*
X117705714Y-74191428D01*
X117705714Y-74048571D01*
X117753333Y-73953333D01*
X117848571Y-73905714D01*
X118372380Y-73905714D01*
X117848571Y-73905714D02*
X117753333Y-73858095D01*
X117705714Y-73762857D01*
X117705714Y-73620000D01*
X117753333Y-73524761D01*
X117848571Y-73477142D01*
X118372380Y-73477142D01*
X117324761Y-72286666D02*
X118610476Y-73143809D01*
X117372380Y-72096190D02*
X117372380Y-71524761D01*
X118372380Y-71810476D02*
X117372380Y-71810476D01*
X118372380Y-71191428D02*
X117372380Y-71191428D01*
X118372380Y-70762857D02*
X117848571Y-70762857D01*
X117753333Y-70810476D01*
X117705714Y-70905714D01*
X117705714Y-71048571D01*
X117753333Y-71143809D01*
X117800952Y-71191428D01*
X118372380Y-70286666D02*
X117705714Y-70286666D01*
X117372380Y-70286666D02*
X117420000Y-70334285D01*
X117467619Y-70286666D01*
X117420000Y-70239047D01*
X117372380Y-70286666D01*
X117467619Y-70286666D01*
X118324761Y-69429523D02*
X118372380Y-69524761D01*
X118372380Y-69715238D01*
X118324761Y-69810476D01*
X118229523Y-69858095D01*
X117848571Y-69858095D01*
X117753333Y-69810476D01*
X117705714Y-69715238D01*
X117705714Y-69524761D01*
X117753333Y-69429523D01*
X117848571Y-69381904D01*
X117943809Y-69381904D01*
X118039047Y-69858095D01*
X118372380Y-68953333D02*
X117705714Y-68953333D01*
X117896190Y-68953333D02*
X117800952Y-68905714D01*
X117753333Y-68858095D01*
X117705714Y-68762857D01*
X117705714Y-68667619D01*
X118372380Y-68334285D02*
X117705714Y-68334285D01*
X117896190Y-68334285D02*
X117800952Y-68286666D01*
X117753333Y-68239047D01*
X117705714Y-68143809D01*
X117705714Y-68048571D01*
X117705714Y-67810476D02*
X118372380Y-67572380D01*
X117705714Y-67334285D02*
X118372380Y-67572380D01*
X118610476Y-67667619D01*
X118658095Y-67715238D01*
X118705714Y-67810476D01*
X117372380Y-66762857D02*
X117372380Y-66572380D01*
X117420000Y-66477142D01*
X117515238Y-66381904D01*
X117705714Y-66334285D01*
X118039047Y-66334285D01*
X118229523Y-66381904D01*
X118324761Y-66477142D01*
X118372380Y-66572380D01*
X118372380Y-66762857D01*
X118324761Y-66858095D01*
X118229523Y-66953333D01*
X118039047Y-67000952D01*
X117705714Y-67000952D01*
X117515238Y-66953333D01*
X117420000Y-66858095D01*
X117372380Y-66762857D01*
X118372380Y-65905714D02*
X117705714Y-65905714D01*
X117896190Y-65905714D02*
X117800952Y-65858095D01*
X117753333Y-65810476D01*
X117705714Y-65715238D01*
X117705714Y-65620000D01*
X118372380Y-65143809D02*
X118324761Y-65239047D01*
X118229523Y-65286666D01*
X117372380Y-65286666D01*
X118372380Y-64334285D02*
X117848571Y-64334285D01*
X117753333Y-64381904D01*
X117705714Y-64477142D01*
X117705714Y-64667619D01*
X117753333Y-64762857D01*
X118324761Y-64334285D02*
X118372380Y-64429523D01*
X118372380Y-64667619D01*
X118324761Y-64762857D01*
X118229523Y-64810476D01*
X118134285Y-64810476D01*
X118039047Y-64762857D01*
X117991428Y-64667619D01*
X117991428Y-64429523D01*
X117943809Y-64334285D01*
X117705714Y-63858095D02*
X118372380Y-63858095D01*
X117800952Y-63858095D02*
X117753333Y-63810476D01*
X117705714Y-63715238D01*
X117705714Y-63572380D01*
X117753333Y-63477142D01*
X117848571Y-63429523D01*
X118372380Y-63429523D01*
X118372380Y-62524761D02*
X117372380Y-62524761D01*
X118324761Y-62524761D02*
X118372380Y-62620000D01*
X118372380Y-62810476D01*
X118324761Y-62905714D01*
X118277142Y-62953333D01*
X118181904Y-63000952D01*
X117896190Y-63000952D01*
X117800952Y-62953333D01*
X117753333Y-62905714D01*
X117705714Y-62810476D01*
X117705714Y-62620000D01*
X117753333Y-62524761D01*
X118372380Y-62048571D02*
X117705714Y-62048571D01*
X117372380Y-62048571D02*
X117420000Y-62096190D01*
X117467619Y-62048571D01*
X117420000Y-62000952D01*
X117372380Y-62048571D01*
X117467619Y-62048571D01*
X117324761Y-60858095D02*
X118610476Y-61715238D01*
X120022380Y-73977142D02*
X120022380Y-74548571D01*
X120022380Y-74262857D02*
X119022380Y-74262857D01*
X119165238Y-74358095D01*
X119260476Y-74453333D01*
X119308095Y-74548571D01*
X119117619Y-73596190D02*
X119070000Y-73548571D01*
X119022380Y-73453333D01*
X119022380Y-73215238D01*
X119070000Y-73120000D01*
X119117619Y-73072380D01*
X119212857Y-73024761D01*
X119308095Y-73024761D01*
X119450952Y-73072380D01*
X120022380Y-73643809D01*
X120022380Y-73024761D01*
X120117619Y-72834285D02*
X120117619Y-72072380D01*
X119022380Y-71977142D02*
X119022380Y-71405714D01*
X120022380Y-71691428D02*
X119022380Y-71691428D01*
X119022380Y-70881904D02*
X119022380Y-70691428D01*
X119070000Y-70596190D01*
X119165238Y-70500952D01*
X119355714Y-70453333D01*
X119689047Y-70453333D01*
X119879523Y-70500952D01*
X119974761Y-70596190D01*
X120022380Y-70691428D01*
X120022380Y-70881904D01*
X119974761Y-70977142D01*
X119879523Y-71072380D01*
X119689047Y-71120000D01*
X119355714Y-71120000D01*
X119165238Y-71072380D01*
X119070000Y-70977142D01*
X119022380Y-70881904D01*
X120022380Y-69453333D02*
X119546190Y-69786666D01*
X120022380Y-70024761D02*
X119022380Y-70024761D01*
X119022380Y-69643809D01*
X119070000Y-69548571D01*
X119117619Y-69500952D01*
X119212857Y-69453333D01*
X119355714Y-69453333D01*
X119450952Y-69500952D01*
X119498571Y-69548571D01*
X119546190Y-69643809D01*
X119546190Y-70024761D01*
X120117619Y-69262857D02*
X120117619Y-68500952D01*
X120022380Y-68262857D02*
X119022380Y-68262857D01*
X119022380Y-67881904D01*
X119070000Y-67786666D01*
X119117619Y-67739047D01*
X119212857Y-67691428D01*
X119355714Y-67691428D01*
X119450952Y-67739047D01*
X119498571Y-67786666D01*
X119546190Y-67881904D01*
X119546190Y-68262857D01*
D10*
X114300000Y-81280000D02*
X101600000Y-81280000D01*
X100330000Y-80010000D02*
X100330000Y-74930000D01*
D12*
%TO.C,J1*%
X105470000Y-69790000D02*
X102810000Y-69790000D01*
X105470000Y-69850000D02*
X105470000Y-69790000D01*
X102810000Y-69850000D02*
X102810000Y-69790000D01*
X105470000Y-69850000D02*
X102810000Y-69850000D01*
X105470000Y-71120000D02*
X105470000Y-72450000D01*
X105470000Y-72450000D02*
X104140000Y-72450000D01*
%TO.C,J2*%
X105470000Y-64830000D02*
X104140000Y-64830000D01*
X105470000Y-63500000D02*
X105470000Y-64830000D01*
X105470000Y-62230000D02*
X102810000Y-62230000D01*
X102810000Y-62230000D02*
X102810000Y-62170000D01*
X105470000Y-62230000D02*
X105470000Y-62170000D01*
X105470000Y-62170000D02*
X102810000Y-62170000D01*
%TO.C,J3*%
X105470000Y-77530000D02*
X104140000Y-77530000D01*
X105470000Y-76200000D02*
X105470000Y-77530000D01*
X105470000Y-74930000D02*
X102810000Y-74930000D01*
X102810000Y-74930000D02*
X102810000Y-74870000D01*
X105470000Y-74930000D02*
X105470000Y-74870000D01*
X105470000Y-74870000D02*
X102810000Y-74870000D01*
%TO.C,Q1*%
X111780000Y-73660000D02*
X111780000Y-70210000D01*
X111780000Y-73660000D02*
X111780000Y-75610000D01*
X106660000Y-73660000D02*
X106660000Y-71710000D01*
X106660000Y-73660000D02*
X106660000Y-75610000D01*
%TO.C,R1*%
X111588733Y-64010000D02*
X111931267Y-64010000D01*
X111588733Y-62990000D02*
X111931267Y-62990000D01*
%TO.C,R2*%
X107778733Y-62990000D02*
X108121267Y-62990000D01*
X107778733Y-64010000D02*
X108121267Y-64010000D01*
%TO.C,J4*%
X105470000Y-67250000D02*
X102810000Y-67250000D01*
X105470000Y-67310000D02*
X105470000Y-67250000D01*
X102810000Y-67310000D02*
X102810000Y-67250000D01*
X105470000Y-67310000D02*
X102810000Y-67310000D01*
X105470000Y-68580000D02*
X105470000Y-69910000D01*
X105470000Y-69910000D02*
X104140000Y-69910000D01*
%TO.C,J5*%
X105470000Y-80070000D02*
X104140000Y-80070000D01*
X105470000Y-78740000D02*
X105470000Y-80070000D01*
X105470000Y-77470000D02*
X102810000Y-77470000D01*
X102810000Y-77470000D02*
X102810000Y-77410000D01*
X105470000Y-77470000D02*
X105470000Y-77410000D01*
X105470000Y-77410000D02*
X102810000Y-77410000D01*
%TD*%
M02*
